<?xml version="1.0" encoding="UTF-8" standalone="no"?>
<!-- Created with Inkscape (http://www.inkscape.org/) -->
<svg
   xmlns:dc="http://purl.org/dc/elements/1.1/"
   xmlns:cc="http://web.resource.org/cc/"
   xmlns:rdf="http://www.w3.org/1999/02/22-rdf-syntax-ns#"
   xmlns:svg="http://www.w3.org/2000/svg"
   xmlns="http://www.w3.org/2000/svg"
   xmlns:sodipodi="http://sodipodi.sourceforge.net/DTD/sodipodi-0.dtd"
   xmlns:inkscape="http://www.inkscape.org/namespaces/inkscape"
   width="744.09448819"
   height="1052.3622047"
   id="svg2"
   sodipodi:version="0.32"
   inkscape:version="0.44"
   sodipodi:docbase="/Users/muraken/CodeRepos/websites/emacs-users.jp/public/images"
   sodipodi:docname="stop-religious-war.svg">
  <defs
     id="defs4" />
  <sodipodi:namedview
     id="base"
     pagecolor="#ffffff"
     bordercolor="#666666"
     borderopacity="1.0"
     gridtolerance="10000"
     guidetolerance="10"
     objecttolerance="10"
     inkscape:pageopacity="0.0"
     inkscape:pageshadow="2"
     inkscape:zoom="1.2888148"
     inkscape:cx="372.04724"
     inkscape:cy="191.54842"
     inkscape:document-units="px"
     inkscape:current-layer="layer1"
     inkscape:window-width="1045"
     inkscape:window-height="698"
     inkscape:window-x="68"
     inkscape:window-y="0" />
  <metadata
     id="metadata7">
    <rdf:RDF>
      <cc:Work
         rdf:about="">
        <dc:format>image/svg+xml</dc:format>
        <dc:type
           rdf:resource="http://purl.org/dc/dcmitype/StillImage" />
      </cc:Work>
    </rdf:RDF>
  </metadata>
  <g
     inkscape:label="Layer 1"
     inkscape:groupmode="layer"
     id="layer1">
    <g
       id="g4624"
       transform="translate(-311.9145,4.65544)">
      <path
         sodipodi:nodetypes="cczzzcczcccccccccc"
         id="path1933"
         d="M 326.76845,774.75632 L 326.76845,911.5376 C 326.76845,927.94155 333.10159,977.05875 357.13776,1003.3041 C 381.17392,1029.5495 406.04057,1034.4521 437.34389,1034.4521 C 468.64721,1034.4521 493.75373,1025.84 516.64418,999.84697 C 539.39903,974.00791 545.73236,919.03141 545.73236,899.55971 L 545.56605,821.86691 C 545.56605,807.68866 530.99682,795.54024 517.08059,795.54024 C 503.47363,795.54024 495.73125,804.13124 492.63161,810.1864 L 492.63161,752.85752 C 492.63161,742.86785 483.25468,727.05654 465.75787,726.75311 C 462.62825,726.75311 456.74109,727.54689 452.13919,729.98028 C 448.66043,724.44646 444.98912,715.86082 428.77818,715.18497 C 416.39256,715.13118 408.54518,720.91226 403.2543,729.98028 C 400.65542,727.99642 395.70501,727.41218 391.08066,727.4538 C 374.01827,727.4538 365.01995,741.43992 365.01995,749.43061 C 364.00272,748.31754 360.21333,746.52336 354.59411,746.52336 C 338.63466,746.52336 326.76845,760.59198 326.76845,774.75632 z "
         style="fill:black;fill-opacity:1;fill-rule:evenodd;stroke:none;stroke-width:1px;stroke-linecap:butt;stroke-linejoin:miter;stroke-opacity:1" />
      <path
         sodipodi:nodetypes="cccccccscczcczcczcccccczccccczcccc"
         id="path2822"
         d="M 337.99167,772.91939 L 337.99167,912.8773 C 340.71219,941.89226 343.87198,970.73151 362.734,993.28987 C 379.52744,1015.5361 406.11993,1022.4713 436.03316,1024.2178 C 467.39078,1023.5671 492.91414,1013.3071 510.26015,989.57852 C 527.26593,965.11744 535.31587,933.83287 535.00248,896.17623 L 535.00248,824.09598 C 535.00248,814.175 526.74636,805.86309 517.36628,805.86309 C 508.51056,805.86309 498.81682,812.37965 498.81682,824.42347 L 498.81682,860.60913 C 498.81682,865.2789 493.58515,868.04275 489.69856,868.04275 C 485.797,868.04275 481.49719,864.3819 481.49719,860.91841 L 481.49719,753.62406 C 481.49719,744.69592 472.5855,737.36687 465.24728,737.36687 C 457.90906,737.36687 447.78577,744.66659 447.78577,754.65371 L 447.78577,854.12519 C 447.78577,856.55852 445.27504,859.30298 442.52802,859.37201 C 439.781,859.44104 436.65172,856.9838 436.65172,853.96874 L 436.65172,754.65006 C 436.65172,748.89369 440.84426,739.77983 444.07078,736.43903 C 441.90518,731.02697 434.61951,725.45415 428.14107,725.45415 C 420.42683,725.45415 410.98155,733.30526 410.98155,741.06364 L 410.98155,854.7474 C 410.98155,857.28331 408.07982,859.83775 405.72381,859.83775 C 403.21521,859.83775 400.46606,857.09392 400.46606,854.58729 L 400.46606,740.61247 C 398.80359,738.4035 394.92041,737.51604 392.10095,737.51604 C 384.75522,737.51604 374.48297,744.92595 374.48297,753.59491 L 374.63578,867.11492 C 374.63578,869.53964 371.74538,872.3581 368.92323,872.3581 C 366.10108,872.3581 363.66184,869.93799 363.66184,866.95482 L 363.66184,761.02125 C 361.99779,758.86357 357.76107,757.46272 354.07419,757.46272 C 346.72154,757.46272 337.99167,765.56945 337.99167,772.91939 z "
         style="fill:#fcc90e;fill-opacity:1;fill-rule:evenodd;stroke:none;stroke-width:1px;stroke-linecap:butt;stroke-linejoin:miter;stroke-opacity:1" />
      <text
         id="text3727"
         y="915.77203"
         x="371.62927"
         style="font-size:12px;font-style:normal;font-weight:normal;fill:black;fill-opacity:1;stroke:none;stroke-width:1px;stroke-linecap:butt;stroke-linejoin:miter;stroke-opacity:1;font-family:Bitstream Vera Sans"
         xml:space="preserve"><tspan
           style="font-size:36px;font-family:Hiragino Kaku Gothic Std"
           y="915.77203"
           x="371.62927"
           id="tspan3729"
           sodipodi:role="line">STOP!</tspan></text>
      <text
         id="text3735"
         y="955.01648"
         x="364.84509"
         style="font-size:12px;font-style:normal;font-weight:normal;fill:black;fill-opacity:1;stroke:none;stroke-width:1px;stroke-linecap:butt;stroke-linejoin:miter;stroke-opacity:1;font-family:Bitstream Vera Sans"
         xml:space="preserve"><tspan
           style="font-size:36px;font-family:Hiragino Kaku Gothic Std"
           y="955.01648"
           x="364.84509"
           id="tspan3737"
           sodipodi:role="line">宗教戦争</tspan></text>
    </g>
    <g
       transform="translate(-311.9145,4.65544)"
       id="g4632"
       inkscape:export-filename="/Users/muraken/CodeRepos/websites/emacs-users.jp/public/images/stop-religious-war.png"
       inkscape:export-xdpi="180.41296"
       inkscape:export-ydpi="180.41296">
      <path
         style="fill:black;fill-opacity:1;fill-rule:evenodd;stroke:none;stroke-width:1px;stroke-linecap:butt;stroke-linejoin:miter;stroke-opacity:1"
         d="M 326.76845,774.75632 L 326.76845,911.5376 C 326.76845,927.94155 333.10159,977.05875 357.13776,1003.3041 C 381.17392,1029.5495 406.04057,1034.4521 437.34389,1034.4521 C 468.64721,1034.4521 493.75373,1025.84 516.64418,999.84697 C 539.39903,974.00791 545.73236,919.03141 545.73236,899.55971 L 545.56605,821.86691 C 545.56605,807.68866 530.99682,795.54024 517.08059,795.54024 C 503.47363,795.54024 495.73125,804.13124 492.63161,810.1864 L 492.63161,752.85752 C 492.63161,742.86785 483.25468,727.05654 465.75787,726.75311 C 462.62825,726.75311 456.74109,727.54689 452.13919,729.98028 C 448.66043,724.44646 444.98912,715.86082 428.77818,715.18497 C 416.39256,715.13118 408.54518,720.91226 403.2543,729.98028 C 400.65542,727.99642 395.70501,727.41218 391.08066,727.4538 C 374.01827,727.4538 365.01995,741.43992 365.01995,749.43061 C 364.00272,748.31754 360.21333,746.52336 354.59411,746.52336 C 338.63466,746.52336 326.76845,760.59198 326.76845,774.75632 z "
         id="path4634"
         sodipodi:nodetypes="cczzzcczcccccccccc" />
      <path
         style="fill:#fcc90e;fill-opacity:1;fill-rule:evenodd;stroke:none;stroke-width:1px;stroke-linecap:butt;stroke-linejoin:miter;stroke-opacity:1"
         d="M 337.99167,772.91939 L 337.99167,912.8773 C 340.71219,941.89226 343.87198,970.73151 362.734,993.28987 C 379.52744,1015.5361 406.11993,1022.4713 436.03316,1024.2178 C 467.39078,1023.5671 492.91414,1013.3071 510.26015,989.57852 C 527.26593,965.11744 535.31587,933.83287 535.00248,896.17623 L 535.00248,824.09598 C 535.00248,814.175 526.74636,805.86309 517.36628,805.86309 C 508.51056,805.86309 498.81682,812.37965 498.81682,824.42347 L 498.81682,860.60913 C 498.81682,865.2789 493.58515,868.04275 489.69856,868.04275 C 485.797,868.04275 481.49719,864.3819 481.49719,860.91841 L 481.49719,753.62406 C 481.49719,744.69592 472.5855,737.36687 465.24728,737.36687 C 457.90906,737.36687 447.78577,744.66659 447.78577,754.65371 L 447.78577,854.12519 C 447.78577,856.55852 445.27504,859.30298 442.52802,859.37201 C 439.781,859.44104 436.65172,856.9838 436.65172,853.96874 L 436.65172,754.65006 C 436.65172,748.89369 440.84426,739.77983 444.07078,736.43903 C 441.90518,731.02697 434.61951,725.45415 428.14107,725.45415 C 420.42683,725.45415 410.98155,733.30526 410.98155,741.06364 L 410.98155,854.7474 C 410.98155,857.28331 408.07982,859.83775 405.72381,859.83775 C 403.21521,859.83775 400.46606,857.09392 400.46606,854.58729 L 400.46606,740.61247 C 398.80359,738.4035 394.92041,737.51604 392.10095,737.51604 C 384.75522,737.51604 374.48297,744.92595 374.48297,753.59491 L 374.63578,867.11492 C 374.63578,869.53964 371.74538,872.3581 368.92323,872.3581 C 366.10108,872.3581 363.66184,869.93799 363.66184,866.95482 L 363.66184,761.02125 C 361.99779,758.86357 357.76107,757.46272 354.07419,757.46272 C 346.72154,757.46272 337.99167,765.56945 337.99167,772.91939 z "
         id="path4636"
         sodipodi:nodetypes="cccccccscczcczcczcccccczccccczcccc" />
      <text
         xml:space="preserve"
         style="font-size:12px;font-style:normal;font-weight:normal;fill:black;fill-opacity:1;stroke:none;stroke-width:1px;stroke-linecap:butt;stroke-linejoin:miter;stroke-opacity:1;font-family:Bitstream Vera Sans"
         x="371.62927"
         y="915.77203"
         id="text4638"><tspan
           sodipodi:role="line"
           id="tspan4640"
           x="371.62927"
           y="915.77203"
           style="font-size:36px;font-family:Hiragino Kaku Gothic Std">STOP!</tspan></text>
      <text
         xml:space="preserve"
         style="font-size:12px;font-style:normal;font-weight:normal;fill:black;fill-opacity:1;stroke:none;stroke-width:1px;stroke-linecap:butt;stroke-linejoin:miter;stroke-opacity:1;font-family:Bitstream Vera Sans"
         x="364.84509"
         y="955.01648"
         id="text4642"><tspan
           sodipodi:role="line"
           id="tspan4644"
           x="364.84509"
           y="955.01648"
           style="font-size:36px;font-family:Hiragino Kaku Gothic Std">宗教戦争</tspan></text>
    </g>
  </g>
</svg>
